G75*
%MOIN*%
%OFA0B0*%
%FSLAX24Y24*%
%IPPOS*%
%LPD*%
%AMOC8*
5,1,8,0,0,1.08239X$1,22.5*
%
%ADD10C,0.0000*%
%ADD11C,0.0110*%
%ADD12C,0.0520*%
%ADD13C,0.0600*%
%ADD14C,0.0740*%
%ADD15C,0.0520*%
%ADD16R,0.0650X0.0650*%
%ADD17C,0.0650*%
%ADD18C,0.0120*%
%ADD19C,0.0100*%
%ADD20C,0.0420*%
D10*
X000100Y001170D02*
X000100Y020570D01*
X019220Y020570D01*
X019210Y001170D01*
X000100Y001170D01*
X009850Y017050D02*
X009852Y017100D01*
X009858Y017150D01*
X009868Y017200D01*
X009881Y017248D01*
X009898Y017296D01*
X009919Y017342D01*
X009943Y017386D01*
X009971Y017428D01*
X010002Y017468D01*
X010036Y017505D01*
X010073Y017540D01*
X010112Y017571D01*
X010153Y017600D01*
X010197Y017625D01*
X010243Y017647D01*
X010290Y017665D01*
X010338Y017679D01*
X010387Y017690D01*
X010437Y017697D01*
X010487Y017700D01*
X010538Y017699D01*
X010588Y017694D01*
X010638Y017685D01*
X010686Y017673D01*
X010734Y017656D01*
X010780Y017636D01*
X010825Y017613D01*
X010868Y017586D01*
X010908Y017556D01*
X010946Y017523D01*
X010981Y017487D01*
X011014Y017448D01*
X011043Y017407D01*
X011069Y017364D01*
X011092Y017319D01*
X011111Y017272D01*
X011126Y017224D01*
X011138Y017175D01*
X011146Y017125D01*
X011150Y017075D01*
X011150Y017025D01*
X011146Y016975D01*
X011138Y016925D01*
X011126Y016876D01*
X011111Y016828D01*
X011092Y016781D01*
X011069Y016736D01*
X011043Y016693D01*
X011014Y016652D01*
X010981Y016613D01*
X010946Y016577D01*
X010908Y016544D01*
X010868Y016514D01*
X010825Y016487D01*
X010780Y016464D01*
X010734Y016444D01*
X010686Y016427D01*
X010638Y016415D01*
X010588Y016406D01*
X010538Y016401D01*
X010487Y016400D01*
X010437Y016403D01*
X010387Y016410D01*
X010338Y016421D01*
X010290Y016435D01*
X010243Y016453D01*
X010197Y016475D01*
X010153Y016500D01*
X010112Y016529D01*
X010073Y016560D01*
X010036Y016595D01*
X010002Y016632D01*
X009971Y016672D01*
X009943Y016714D01*
X009919Y016758D01*
X009898Y016804D01*
X009881Y016852D01*
X009868Y016900D01*
X009858Y016950D01*
X009852Y017000D01*
X009850Y017050D01*
D11*
X008338Y007696D02*
X008338Y007105D01*
X008043Y007105D01*
X007944Y007203D01*
X007944Y007400D01*
X008043Y007499D01*
X008338Y007499D01*
X007693Y007400D02*
X007693Y007302D01*
X007300Y007302D01*
X007300Y007400D02*
X007300Y007203D01*
X007398Y007105D01*
X007595Y007105D01*
X007693Y007400D02*
X007595Y007499D01*
X007398Y007499D01*
X007300Y007400D01*
X007049Y007400D02*
X007049Y007597D01*
X006950Y007696D01*
X006655Y007696D01*
X006655Y007105D01*
X006655Y007302D02*
X006950Y007302D01*
X007049Y007400D01*
X006852Y007302D02*
X007049Y007105D01*
X005950Y003196D02*
X005753Y003196D01*
X005655Y003097D01*
X005655Y002703D01*
X005753Y002605D01*
X005950Y002605D01*
X006049Y002703D01*
X006049Y002900D01*
X005852Y002900D01*
X006049Y003097D02*
X005950Y003196D01*
X006300Y002999D02*
X006300Y002605D01*
X006300Y002802D02*
X006496Y002999D01*
X006595Y002999D01*
X006837Y002900D02*
X006837Y002703D01*
X006935Y002605D01*
X007132Y002605D01*
X007230Y002802D02*
X007230Y002900D01*
X007132Y002999D01*
X006935Y002999D01*
X006837Y002900D01*
X006837Y002802D02*
X007230Y002802D01*
X007481Y002802D02*
X007875Y002802D01*
X007875Y002900D01*
X007776Y002999D01*
X007580Y002999D01*
X007481Y002900D01*
X007481Y002703D01*
X007580Y002605D01*
X007776Y002605D01*
X008126Y002605D02*
X008126Y002999D01*
X008421Y002999D01*
X008519Y002900D01*
X008519Y002605D01*
X012155Y002696D02*
X012155Y002105D01*
X012549Y002105D02*
X012549Y002696D01*
X012352Y002499D01*
X012155Y002696D01*
X012800Y002203D02*
X012898Y002302D01*
X013193Y002302D01*
X013193Y002400D02*
X013193Y002105D01*
X012898Y002105D01*
X012800Y002203D01*
X012898Y002499D02*
X013095Y002499D01*
X013193Y002400D01*
X013444Y002400D02*
X013444Y002203D01*
X013543Y002105D01*
X013838Y002105D01*
X014089Y002105D02*
X014089Y002696D01*
X014187Y002499D02*
X014089Y002400D01*
X014187Y002499D02*
X014384Y002499D01*
X014482Y002400D01*
X014482Y002105D01*
X014733Y002105D02*
X014930Y002105D01*
X014832Y002105D02*
X014832Y002499D01*
X014733Y002499D01*
X014832Y002696D02*
X014832Y002794D01*
X015163Y002499D02*
X015458Y002499D01*
X015557Y002400D01*
X015557Y002105D01*
X015807Y002203D02*
X015807Y002400D01*
X015906Y002499D01*
X016103Y002499D01*
X016201Y002400D01*
X016201Y002302D01*
X015807Y002302D01*
X015807Y002203D02*
X015906Y002105D01*
X016103Y002105D01*
X015163Y002105D02*
X015163Y002499D01*
X013838Y002499D02*
X013543Y002499D01*
X013444Y002400D01*
X017097Y002203D02*
X017195Y002105D01*
X017392Y002105D01*
X017490Y002203D01*
X017490Y002400D01*
X017293Y002400D01*
X017097Y002597D02*
X017097Y002203D01*
X017097Y002597D02*
X017195Y002696D01*
X017392Y002696D01*
X017490Y002597D01*
X017741Y002499D02*
X017741Y002203D01*
X017840Y002105D01*
X018135Y002105D01*
X018135Y002499D01*
X018386Y002499D02*
X018681Y002499D01*
X018779Y002400D01*
X018779Y002105D01*
X018386Y002105D02*
X018386Y002499D01*
D12*
X017650Y009040D02*
X017650Y009560D01*
X016650Y009560D02*
X016650Y009040D01*
X015650Y009040D02*
X015650Y009560D01*
X014650Y009560D02*
X014650Y009040D01*
X013650Y009040D02*
X013650Y009560D01*
X012650Y009560D02*
X012650Y009040D01*
X011650Y009040D02*
X011650Y009560D01*
X010650Y009560D02*
X010650Y009040D01*
X009650Y009040D02*
X009650Y009560D01*
X008650Y009560D02*
X008650Y009040D01*
X007650Y009040D02*
X007650Y009560D01*
X006650Y009560D02*
X006650Y009040D01*
X005650Y009040D02*
X005650Y009560D01*
X004650Y009560D02*
X004650Y009040D01*
X004650Y012040D02*
X004650Y012560D01*
X005650Y012560D02*
X005650Y012040D01*
X006650Y012040D02*
X006650Y012560D01*
X007650Y012560D02*
X007650Y012040D01*
X008650Y012040D02*
X008650Y012560D01*
X009650Y012560D02*
X009650Y012040D01*
X010650Y012040D02*
X010650Y012560D01*
X011650Y012560D02*
X011650Y012040D01*
X012650Y012040D02*
X012650Y012560D01*
X013650Y012560D02*
X013650Y012040D01*
X014650Y012040D02*
X014650Y012560D01*
X015650Y012560D02*
X015650Y012040D01*
X016650Y012040D02*
X016650Y012560D01*
X017650Y012560D02*
X017650Y012040D01*
D13*
X016600Y019750D02*
X016600Y020350D01*
X015600Y020350D02*
X015600Y019750D01*
X014600Y019750D02*
X014600Y020350D01*
X013600Y020350D02*
X013600Y019750D01*
X012600Y019750D02*
X012600Y020350D01*
X011600Y020350D02*
X011600Y019750D01*
X010600Y019750D02*
X010600Y020350D01*
X009600Y020350D02*
X009600Y019750D01*
X008000Y019750D02*
X008000Y020350D01*
X007000Y020350D02*
X007000Y019750D01*
X006000Y019750D02*
X006000Y020350D01*
X005000Y020350D02*
X005000Y019750D01*
X004000Y019750D02*
X004000Y020350D01*
X003000Y020350D02*
X003000Y019750D01*
X002000Y019750D02*
X002000Y020350D01*
X001000Y020350D02*
X001000Y019750D01*
X004300Y018050D02*
X004900Y018050D01*
X004900Y017050D02*
X004300Y017050D01*
X004300Y016050D02*
X004900Y016050D01*
X011600Y001850D02*
X011600Y001250D01*
X012600Y001250D02*
X012600Y001850D01*
X013600Y001850D02*
X013600Y001250D01*
X014600Y001250D02*
X014600Y001850D01*
X015600Y001850D02*
X015600Y001250D01*
X016600Y001250D02*
X016600Y001850D01*
D14*
X016320Y003160D03*
X015600Y004550D03*
X016320Y004940D03*
X016320Y006160D03*
X015600Y006050D03*
X016320Y007940D03*
X018880Y007940D03*
X018880Y006160D03*
X018880Y004940D03*
X018880Y003160D03*
X012600Y004550D03*
X012600Y006050D03*
X011100Y007050D03*
X010100Y007050D03*
X007600Y006050D03*
X006600Y006050D03*
X005600Y006050D03*
X004100Y005550D03*
X005100Y004050D03*
X005500Y001550D03*
X006500Y001550D03*
X007500Y001550D03*
X008500Y001550D03*
X009500Y001550D03*
X010100Y003550D03*
X011100Y003550D03*
X008100Y004050D03*
X004500Y001550D03*
X001100Y005550D03*
X001600Y007050D03*
X001600Y008050D03*
X001600Y010050D03*
X001600Y011050D03*
X002600Y013550D03*
X003350Y014050D03*
X002600Y014550D03*
X005100Y014050D03*
X008100Y014050D03*
X012100Y011050D03*
X015100Y011050D03*
X018300Y014650D03*
X018300Y015650D03*
X018300Y016650D03*
X018300Y017650D03*
X018300Y018650D03*
X018300Y019650D03*
D15*
X008700Y010850D03*
X006700Y010850D03*
D16*
X001800Y017050D03*
D17*
X001800Y018050D03*
D18*
X011100Y008800D02*
X011100Y007050D01*
X011100Y003550D01*
X008500Y001550D02*
X007500Y001550D01*
X011100Y008800D02*
X011600Y009300D01*
X011650Y009300D01*
X011850Y009300D01*
X011850Y010050D01*
X015100Y010050D01*
X015100Y008050D01*
X016100Y008050D01*
X016320Y007940D01*
X016350Y007800D01*
X016850Y007300D01*
X016850Y005550D01*
X016350Y005050D01*
X016320Y004940D01*
X016600Y010050D02*
X015100Y010050D01*
X016600Y010050D02*
X018850Y012300D01*
X018850Y019050D01*
X018350Y019550D01*
X018300Y019650D01*
D19*
X018100Y018800D02*
X018300Y018650D01*
X018100Y018800D02*
X016600Y018800D01*
X016600Y012300D01*
X016650Y012300D01*
X017600Y012300D02*
X016600Y011300D01*
X016600Y010550D01*
X016350Y010300D01*
X012100Y010300D01*
X012100Y011050D01*
X012350Y011550D02*
X012100Y011800D01*
X012100Y012800D01*
X011850Y013050D01*
X011100Y013050D01*
X011100Y011800D01*
X010850Y011550D01*
X010850Y011050D01*
X009850Y011050D01*
X009600Y011300D01*
X006350Y011300D01*
X005100Y010050D01*
X005100Y009550D01*
X004850Y009300D01*
X004650Y009300D01*
X004100Y009300D02*
X004100Y013300D01*
X004350Y013550D01*
X004350Y014800D01*
X005350Y015800D01*
X005350Y016300D01*
X004600Y017050D01*
X003600Y016300D02*
X000850Y013550D01*
X000850Y007050D01*
X001600Y006300D01*
X003850Y006300D01*
X003850Y008300D01*
X004100Y008550D01*
X007600Y008550D01*
X007600Y009300D01*
X007650Y009300D01*
X007850Y009300D01*
X008100Y009050D01*
X008100Y008800D01*
X008600Y008300D01*
X009350Y008300D01*
X009350Y006550D01*
X010600Y004800D02*
X006100Y004800D01*
X005350Y005550D01*
X004600Y004800D01*
X002600Y004800D01*
X000600Y006800D01*
X000600Y017550D01*
X002600Y017550D01*
X003600Y016300D02*
X003600Y019800D01*
X003850Y020050D01*
X004000Y020050D01*
X003850Y019300D02*
X003850Y014300D01*
X004100Y014050D01*
X004100Y013800D01*
X003600Y013300D01*
X003600Y009550D01*
X004100Y009300D02*
X003600Y008800D01*
X003600Y007800D01*
X003350Y007550D01*
X004350Y008050D02*
X005600Y008050D01*
X005600Y007800D01*
X005600Y006050D01*
X005350Y005550D02*
X004850Y006050D01*
X004850Y007050D01*
X005100Y007300D01*
X005100Y004800D02*
X005350Y004800D01*
X005100Y004800D02*
X004350Y004050D01*
X004350Y001550D01*
X004500Y001550D01*
X009350Y003550D02*
X011350Y001550D01*
X011600Y001550D01*
X011850Y003550D02*
X011850Y004550D01*
X013350Y006050D01*
X013350Y009050D01*
X013600Y009300D01*
X013650Y009300D01*
X012650Y009300D02*
X012600Y009300D01*
X011850Y008550D01*
X011850Y005550D01*
X013350Y003800D02*
X015600Y003800D01*
X015600Y004550D01*
X015600Y006050D02*
X015600Y006300D01*
X013850Y008050D01*
X015650Y009300D02*
X015850Y009300D01*
X016100Y009050D01*
X016100Y008800D01*
X016350Y008550D01*
X017100Y008550D01*
X017100Y003550D01*
X010100Y009550D02*
X010100Y009800D01*
X011600Y011300D01*
X011600Y012300D01*
X011650Y012300D01*
X012350Y011550D02*
X013100Y011550D01*
X012650Y012300D02*
X012600Y012300D01*
X012600Y020050D01*
X011600Y020050D02*
X011600Y019050D01*
X012100Y018550D01*
X011600Y018550D02*
X010600Y019550D01*
X010600Y020050D01*
X009600Y020050D02*
X008350Y018800D01*
X007100Y019300D02*
X007100Y020050D01*
X007000Y020050D01*
X007100Y019300D02*
X009350Y017050D01*
X009350Y015300D01*
X011100Y013550D01*
X011100Y013050D01*
X010100Y011550D02*
X009100Y011550D01*
X009100Y015550D01*
X005850Y018800D01*
X004350Y018800D01*
X003850Y019300D02*
X005350Y019300D01*
X005600Y019550D01*
X005600Y019800D01*
X005850Y020050D01*
X006000Y020050D01*
X005850Y017800D02*
X005850Y014050D01*
X005100Y013300D01*
X005100Y012550D01*
X004850Y012300D01*
X004650Y012300D01*
X005650Y012300D02*
X005850Y012300D01*
X006100Y012550D01*
X006100Y014800D01*
X006350Y015050D01*
X006350Y016550D01*
X007350Y016550D02*
X007350Y012550D01*
X007600Y012300D01*
X007650Y012300D01*
X006850Y012300D02*
X006650Y012300D01*
X006850Y012300D02*
X006850Y014300D01*
X009350Y010800D02*
X009100Y010550D01*
X009100Y009550D01*
X008850Y009300D01*
X008650Y009300D01*
X009650Y009300D02*
X009850Y009300D01*
X010100Y009550D01*
X013600Y012300D02*
X013650Y012300D01*
X013600Y012300D02*
X013600Y014050D01*
X013600Y020050D01*
X014600Y020050D02*
X014600Y012300D01*
X014650Y012300D01*
X015100Y011800D02*
X015100Y016300D01*
X016600Y018800D02*
X016600Y020050D01*
X015600Y020050D02*
X015600Y012300D01*
X015650Y012300D01*
X015100Y011800D02*
X016100Y010800D01*
X017600Y012300D02*
X017650Y012300D01*
X017850Y012300D01*
X018100Y012550D01*
X018100Y014550D01*
X018300Y014650D01*
X011600Y015800D02*
X011600Y018550D01*
X011600Y015800D02*
X010600Y014800D01*
X002600Y013550D02*
X002600Y012050D01*
X001600Y011050D01*
X001600Y010050D02*
X001600Y008050D01*
X009350Y004300D02*
X009350Y003550D01*
D20*
X009350Y004300D03*
X010600Y004800D03*
X011850Y005550D03*
X013350Y003800D03*
X011850Y003550D03*
X009350Y006550D03*
X005600Y007800D03*
X005100Y007300D03*
X004350Y008050D03*
X003350Y007550D03*
X003600Y009550D03*
X005350Y004800D03*
X009350Y010800D03*
X010100Y011550D03*
X013100Y011550D03*
X013600Y014050D03*
X015100Y016300D03*
X012100Y018550D03*
X008350Y018800D03*
X007350Y016550D03*
X006350Y016550D03*
X005850Y017800D03*
X004350Y018800D03*
X002600Y017550D03*
X006850Y014300D03*
X010600Y014800D03*
X016100Y010800D03*
X013850Y008050D03*
X017100Y003550D03*
M02*
