G75*
%MOIN*%
%OFA0B0*%
%FSLAX24Y24*%
%IPPOS*%
%LPD*%
%AMOC8*
5,1,8,0,0,1.08239X$1,22.5*
%
%ADD10C,0.0600*%
%ADD11C,0.0680*%
%ADD12C,0.0820*%
%ADD13C,0.0600*%
%ADD14R,0.0730X0.0730*%
%ADD15C,0.0730*%
%ADD16C,0.1380*%
%ADD17C,0.0500*%
D10*
X004650Y009040D02*
X004650Y009560D01*
X005650Y009560D02*
X005650Y009040D01*
X006650Y009040D02*
X006650Y009560D01*
X007650Y009560D02*
X007650Y009040D01*
X008650Y009040D02*
X008650Y009560D01*
X009650Y009560D02*
X009650Y009040D01*
X010650Y009040D02*
X010650Y009560D01*
X011650Y009560D02*
X011650Y009040D01*
X012650Y009040D02*
X012650Y009560D01*
X013650Y009560D02*
X013650Y009040D01*
X014650Y009040D02*
X014650Y009560D01*
X015650Y009560D02*
X015650Y009040D01*
X016650Y009040D02*
X016650Y009560D01*
X017650Y009560D02*
X017650Y009040D01*
X017650Y012040D02*
X017650Y012560D01*
X016650Y012560D02*
X016650Y012040D01*
X015650Y012040D02*
X015650Y012560D01*
X014650Y012560D02*
X014650Y012040D01*
X013650Y012040D02*
X013650Y012560D01*
X012650Y012560D02*
X012650Y012040D01*
X011650Y012040D02*
X011650Y012560D01*
X010650Y012560D02*
X010650Y012040D01*
X009650Y012040D02*
X009650Y012560D01*
X008650Y012560D02*
X008650Y012040D01*
X007650Y012040D02*
X007650Y012560D01*
X006650Y012560D02*
X006650Y012040D01*
X005650Y012040D02*
X005650Y012560D01*
X004650Y012560D02*
X004650Y012040D01*
D11*
X004900Y016050D02*
X004300Y016050D01*
X004300Y017050D02*
X004900Y017050D01*
X004900Y018050D02*
X004300Y018050D01*
X004000Y019750D02*
X004000Y020350D01*
X005000Y020350D02*
X005000Y019750D01*
X006000Y019750D02*
X006000Y020350D01*
X007000Y020350D02*
X007000Y019750D01*
X008000Y019750D02*
X008000Y020350D01*
X009600Y020350D02*
X009600Y019750D01*
X010600Y019750D02*
X010600Y020350D01*
X011600Y020350D02*
X011600Y019750D01*
X012600Y019750D02*
X012600Y020350D01*
X013600Y020350D02*
X013600Y019750D01*
X014600Y019750D02*
X014600Y020350D01*
X015600Y020350D02*
X015600Y019750D01*
X016600Y019750D02*
X016600Y020350D01*
X003000Y020350D02*
X003000Y019750D01*
X002000Y019750D02*
X002000Y020350D01*
X001000Y020350D02*
X001000Y019750D01*
X011600Y001850D02*
X011600Y001250D01*
X012600Y001250D02*
X012600Y001850D01*
X013600Y001850D02*
X013600Y001250D01*
X014600Y001250D02*
X014600Y001850D01*
X015600Y001850D02*
X015600Y001250D01*
X016600Y001250D02*
X016600Y001850D01*
D12*
X004500Y001550D03*
X005500Y001550D03*
X006500Y001550D03*
X007500Y001550D03*
X008500Y001550D03*
X009500Y001550D03*
X010100Y003550D03*
X011100Y003550D03*
X012600Y004550D03*
X012600Y006050D03*
X011100Y007050D03*
X010100Y007050D03*
X007600Y006050D03*
X006600Y006050D03*
X005600Y006050D03*
X004100Y005550D03*
X005100Y004050D03*
X008100Y004050D03*
X001600Y007050D03*
X001600Y008050D03*
X001600Y010050D03*
X001600Y011050D03*
X002600Y013550D03*
X003350Y014050D03*
X002600Y014550D03*
X005100Y014050D03*
X008100Y014050D03*
X012100Y011050D03*
X015100Y011050D03*
X016320Y007940D03*
X016320Y006160D03*
X015600Y006050D03*
X016320Y004940D03*
X015600Y004550D03*
X016320Y003160D03*
X018880Y003160D03*
X018880Y004940D03*
X018880Y006160D03*
X018880Y007940D03*
X018300Y014650D03*
X018300Y015650D03*
X018300Y016650D03*
X018300Y017650D03*
X018300Y018650D03*
X018300Y019650D03*
X001100Y005550D03*
D13*
X006700Y010850D03*
X008700Y010850D03*
D14*
X001800Y017050D03*
D15*
X001800Y018050D03*
D16*
X010500Y017050D03*
D17*
X012100Y018550D03*
X015100Y016300D03*
X013600Y014050D03*
X013100Y011550D03*
X016100Y010800D03*
X013850Y008050D03*
X011850Y005550D03*
X010600Y004800D03*
X009350Y004300D03*
X009350Y006550D03*
X011850Y003550D03*
X013350Y003800D03*
X017100Y003550D03*
X009350Y010800D03*
X010100Y011550D03*
X010600Y014800D03*
X007350Y016550D03*
X006350Y016550D03*
X005850Y017800D03*
X004350Y018800D03*
X002600Y017550D03*
X006850Y014300D03*
X008350Y018800D03*
X003600Y009550D03*
X004350Y008050D03*
X005100Y007300D03*
X005600Y007800D03*
X003350Y007550D03*
X005350Y004800D03*
M02*
