G75*
%MOIN*%
%OFA0B0*%
%FSLAX24Y24*%
%IPPOS*%
%LPD*%
%AMOC8*
5,1,8,0,0,1.08239X$1,22.5*
%
%ADD10C,0.0520*%
%ADD11C,0.0600*%
%ADD12C,0.0740*%
%ADD13C,0.0520*%
%ADD14R,0.0650X0.0650*%
%ADD15C,0.0650*%
%ADD16C,0.0120*%
%ADD17C,0.0100*%
%ADD18C,0.0420*%
%ADD19C,0.0160*%
D10*
X004650Y009040D02*
X004650Y009560D01*
X005650Y009560D02*
X005650Y009040D01*
X006650Y009040D02*
X006650Y009560D01*
X007650Y009560D02*
X007650Y009040D01*
X008650Y009040D02*
X008650Y009560D01*
X009650Y009560D02*
X009650Y009040D01*
X010650Y009040D02*
X010650Y009560D01*
X011650Y009560D02*
X011650Y009040D01*
X012650Y009040D02*
X012650Y009560D01*
X013650Y009560D02*
X013650Y009040D01*
X014650Y009040D02*
X014650Y009560D01*
X015650Y009560D02*
X015650Y009040D01*
X016650Y009040D02*
X016650Y009560D01*
X017650Y009560D02*
X017650Y009040D01*
X017650Y012040D02*
X017650Y012560D01*
X016650Y012560D02*
X016650Y012040D01*
X015650Y012040D02*
X015650Y012560D01*
X014650Y012560D02*
X014650Y012040D01*
X013650Y012040D02*
X013650Y012560D01*
X012650Y012560D02*
X012650Y012040D01*
X011650Y012040D02*
X011650Y012560D01*
X010650Y012560D02*
X010650Y012040D01*
X009650Y012040D02*
X009650Y012560D01*
X008650Y012560D02*
X008650Y012040D01*
X007650Y012040D02*
X007650Y012560D01*
X006650Y012560D02*
X006650Y012040D01*
X005650Y012040D02*
X005650Y012560D01*
X004650Y012560D02*
X004650Y012040D01*
D11*
X004900Y016050D02*
X004300Y016050D01*
X004300Y017050D02*
X004900Y017050D01*
X004900Y018050D02*
X004300Y018050D01*
X004000Y019750D02*
X004000Y020350D01*
X005000Y020350D02*
X005000Y019750D01*
X006000Y019750D02*
X006000Y020350D01*
X007000Y020350D02*
X007000Y019750D01*
X008000Y019750D02*
X008000Y020350D01*
X009600Y020350D02*
X009600Y019750D01*
X010600Y019750D02*
X010600Y020350D01*
X011600Y020350D02*
X011600Y019750D01*
X012600Y019750D02*
X012600Y020350D01*
X013600Y020350D02*
X013600Y019750D01*
X014600Y019750D02*
X014600Y020350D01*
X015600Y020350D02*
X015600Y019750D01*
X016600Y019750D02*
X016600Y020350D01*
X003000Y020350D02*
X003000Y019750D01*
X002000Y019750D02*
X002000Y020350D01*
X001000Y020350D02*
X001000Y019750D01*
X011600Y001850D02*
X011600Y001250D01*
X012600Y001250D02*
X012600Y001850D01*
X013600Y001850D02*
X013600Y001250D01*
X014600Y001250D02*
X014600Y001850D01*
X015600Y001850D02*
X015600Y001250D01*
X016600Y001250D02*
X016600Y001850D01*
D12*
X016320Y003160D03*
X015600Y004550D03*
X016320Y004940D03*
X016320Y006160D03*
X015600Y006050D03*
X016320Y007940D03*
X018880Y007940D03*
X018880Y006160D03*
X018880Y004940D03*
X018880Y003160D03*
X012600Y004550D03*
X012600Y006050D03*
X011100Y007050D03*
X010100Y007050D03*
X007600Y006050D03*
X006600Y006050D03*
X005600Y006050D03*
X004100Y005550D03*
X005100Y004050D03*
X005500Y001550D03*
X006500Y001550D03*
X007500Y001550D03*
X008500Y001550D03*
X009500Y001550D03*
X010100Y003550D03*
X011100Y003550D03*
X008100Y004050D03*
X004500Y001550D03*
X001100Y005550D03*
X001600Y007050D03*
X001600Y008050D03*
X001600Y010050D03*
X001600Y011050D03*
X002600Y013550D03*
X003350Y014050D03*
X002600Y014550D03*
X005100Y014050D03*
X008100Y014050D03*
X012100Y011050D03*
X015100Y011050D03*
X018300Y014650D03*
X018300Y015650D03*
X018300Y016650D03*
X018300Y017650D03*
X018300Y018650D03*
X018300Y019650D03*
D13*
X008700Y010850D03*
X006700Y010850D03*
D14*
X001800Y017050D03*
D15*
X001800Y018050D03*
D16*
X001100Y018050D01*
X001100Y016050D01*
X002600Y014550D01*
X002850Y014800D01*
X005100Y014800D01*
X006850Y013050D01*
X009850Y013050D01*
X010600Y012300D01*
X010650Y012300D01*
X010850Y012300D01*
X010850Y010050D01*
X011600Y009300D01*
X011650Y009300D01*
X006600Y006050D02*
X006600Y002300D01*
X007350Y001550D01*
X007500Y001550D01*
X008500Y001550D02*
X008600Y001550D01*
X009850Y002800D01*
X010350Y002800D01*
X011100Y003550D01*
X004600Y018050D02*
X002100Y018050D01*
X001800Y018050D01*
X002100Y018050D02*
X002100Y020050D01*
X002000Y020050D01*
D17*
X004100Y002300D02*
X004600Y002300D01*
X005350Y001550D01*
X005500Y001550D01*
X005600Y002300D02*
X005100Y002300D01*
X005100Y004050D01*
X004600Y004550D01*
X004600Y005300D01*
X004850Y005550D01*
X004600Y005800D01*
X004600Y007550D01*
X005100Y008050D01*
X005100Y010050D01*
X008850Y010050D01*
X009600Y009300D01*
X009650Y009300D01*
X010600Y008550D02*
X011850Y008550D01*
X012100Y008800D01*
X012100Y011050D01*
X012850Y011050D02*
X011600Y012300D01*
X011650Y012300D01*
X011600Y012300D02*
X012350Y013050D01*
X018850Y013050D01*
X018850Y016050D01*
X018350Y016550D01*
X018300Y016650D01*
X018100Y016550D01*
X016850Y015300D01*
X009850Y015300D01*
X009600Y015550D01*
X005100Y015550D01*
X004600Y016050D01*
X005100Y015300D02*
X003850Y015300D01*
X002100Y017050D01*
X001800Y017050D01*
X002100Y017050D02*
X004600Y017050D01*
X005350Y017550D02*
X002600Y017550D01*
X003600Y019300D02*
X002850Y020050D01*
X003000Y020050D01*
X003600Y019300D02*
X003850Y019300D01*
X004350Y018800D01*
X005100Y018550D02*
X005350Y018300D01*
X005350Y017550D01*
X005850Y017800D02*
X007350Y019300D01*
X012100Y019300D01*
X015100Y016300D01*
X013600Y014050D02*
X008100Y014050D01*
X007350Y014800D02*
X010600Y014800D01*
X009650Y012300D02*
X009600Y012300D01*
X008850Y011550D01*
X008850Y011050D01*
X008700Y010850D01*
X009350Y010800D02*
X010100Y011550D01*
X008650Y012300D02*
X008600Y012300D01*
X007850Y011550D01*
X007350Y011550D01*
X006850Y011050D01*
X006700Y010850D01*
X006650Y009300D02*
X006600Y009300D01*
X006600Y007300D01*
X005100Y007300D01*
X004850Y006800D02*
X008850Y006800D01*
X010600Y008550D01*
X011100Y008050D02*
X013850Y008050D01*
X014350Y007800D02*
X013850Y007300D01*
X013850Y001550D01*
X013600Y001550D01*
X012600Y001550D02*
X011850Y002300D01*
X011850Y003550D01*
X012600Y003800D02*
X012100Y004300D01*
X010850Y004300D01*
X010100Y003550D01*
X009350Y004300D02*
X010350Y005300D01*
X011600Y005300D01*
X011850Y005550D01*
X012600Y006050D02*
X009850Y006050D01*
X009350Y006550D01*
X010100Y007050D02*
X011100Y008050D01*
X008100Y006050D02*
X007600Y006050D01*
X008100Y006050D02*
X008100Y004050D01*
X010600Y004800D02*
X010850Y004550D01*
X012600Y004550D01*
X012600Y003800D02*
X013350Y003800D01*
X014600Y004800D02*
X014600Y007550D01*
X014850Y007550D01*
X016100Y008800D01*
X016100Y010800D01*
X015350Y011550D02*
X015100Y011800D01*
X014850Y011550D01*
X013100Y011550D01*
X012850Y011050D02*
X015100Y011050D01*
X015350Y011550D02*
X017100Y011550D01*
X017100Y007050D01*
X016350Y006300D01*
X016320Y006160D01*
X016100Y005550D02*
X016600Y005550D01*
X017600Y004550D01*
X017600Y002300D01*
X016350Y002300D01*
X015600Y001550D01*
X014600Y001550D02*
X015600Y002550D01*
X017100Y002550D01*
X017100Y003550D01*
X016320Y003160D02*
X016100Y003300D01*
X014600Y004800D01*
X014850Y005300D02*
X015850Y005300D01*
X016100Y005550D01*
X014850Y005300D02*
X014850Y006050D01*
X016100Y007300D01*
X016850Y007300D01*
X016850Y009300D01*
X016650Y009300D01*
X017650Y009300D02*
X017850Y009300D01*
X017850Y001550D01*
X016600Y001550D01*
X014600Y007800D02*
X014350Y007800D01*
X014600Y007800D02*
X014600Y009300D01*
X014650Y009300D01*
X015850Y013300D02*
X007100Y013300D01*
X005100Y015300D01*
X005100Y014050D02*
X003350Y014050D01*
X006350Y016550D02*
X006350Y017300D01*
X007850Y018800D01*
X008350Y018800D01*
X007350Y019300D02*
X008100Y020050D01*
X008000Y020050D01*
X009600Y018800D02*
X011850Y018800D01*
X012100Y018550D01*
X009600Y018800D02*
X007350Y016550D01*
X007350Y014800D02*
X006850Y014300D01*
X005100Y018550D02*
X005100Y020050D01*
X005000Y020050D01*
X003600Y009550D02*
X003600Y008050D01*
X004350Y008050D01*
X004100Y007550D02*
X003350Y007550D01*
X004100Y007550D02*
X004100Y005550D01*
X004100Y002300D01*
X005600Y002300D02*
X006350Y001550D01*
X006500Y001550D01*
X005350Y004800D02*
X005350Y005550D01*
X004850Y006050D01*
X004850Y006800D01*
X005600Y007800D02*
X005600Y009300D01*
X005650Y009300D01*
X001600Y007050D02*
X001100Y007050D01*
X001100Y005550D01*
X015850Y013300D02*
X018100Y015550D01*
X018300Y015650D01*
X018300Y017650D02*
X018100Y017800D01*
X016600Y019300D01*
X016350Y019300D01*
X015600Y020050D01*
D18*
X012100Y018550D03*
X015100Y016300D03*
X013600Y014050D03*
X013100Y011550D03*
X016100Y010800D03*
X013850Y008050D03*
X011850Y005550D03*
X010600Y004800D03*
X009350Y004300D03*
X009350Y006550D03*
X011850Y003550D03*
X013350Y003800D03*
X017100Y003550D03*
X009350Y010800D03*
X010100Y011550D03*
X010600Y014800D03*
X007350Y016550D03*
X006350Y016550D03*
X005850Y017800D03*
X004350Y018800D03*
X002600Y017550D03*
X006850Y014300D03*
X008350Y018800D03*
X003600Y009550D03*
X004350Y008050D03*
X005100Y007300D03*
X005600Y007800D03*
X003350Y007550D03*
X005350Y004800D03*
D19*
X010600Y009300D02*
X010650Y009300D01*
X010600Y009300D02*
X009600Y010300D01*
X004850Y010300D01*
X000850Y014300D01*
X000850Y020050D01*
X001000Y020050D01*
M02*
