%
M48
M72
T01C0.0220
T02C0.0276
T03C0.0320
T04C0.0354
T05C0.0400
T06C0.1300
%
T01
X5350Y4800
X5100Y7300
X5600Y7800
X4350Y8050
X3350Y7550
X3600Y9550
X6850Y14300
X6350Y16550
X7350Y16550
X5850Y17800
X4350Y18800
X2600Y17550
X8350Y18800
X12100Y18550
X15100Y16300
X13600Y14050
X13100Y11550
X16100Y10800
X13850Y8050
X11850Y5550
X10600Y4800
X9350Y4300
X9350Y6550
X11850Y3550
X13350Y3800
X17100Y3550
X9350Y10800
X10100Y11550
X10600Y14800
T02
X1800Y17050
X1800Y18050
T03
X2600Y14550
X3350Y14050
X2600Y13550
X4650Y12300
X5650Y12300
X6650Y12300
X7650Y12300
X8650Y12300
X9650Y12300
X10650Y12300
X11650Y12300
X12650Y12300
X13650Y12300
X14650Y12300
X15650Y12300
X16650Y12300
X17650Y12300
X17650Y9300
X16650Y9300
X15650Y9300
X14650Y9300
X13650Y9300
X12650Y9300
X11650Y9300
X10650Y9300
X9650Y9300
X8650Y9300
X7650Y9300
X6650Y9300
X5650Y9300
X4650Y9300
X6700Y10850
X8700Y10850
X10100Y7050
X11100Y7050
X11100Y3550
X10100Y3550
X1600Y7050
X1600Y8050
X1600Y10050
X1600Y11050
T04
X5100Y14050
X8100Y14050
X12100Y11050
X15100Y11050
X15600Y6050
X15600Y4550
X12600Y4550
X12600Y6050
X8100Y4050
X5100Y4050
X4100Y5550
X1100Y5550
T05
X4500Y1550
X5500Y1550
X6500Y1550
X7500Y1550
X8500Y1550
X9500Y1550
X11600Y1550
X12600Y1550
X13600Y1550
X14600Y1550
X15600Y1550
X16600Y1550
X16320Y3160
X16320Y4940
X16320Y6160
X16320Y7940
X18880Y7940
X18880Y6160
X18880Y4940
X18880Y3160
X7600Y6050
X6600Y6050
X5600Y6050
X4600Y16050
X4600Y17050
X4600Y18050
X5000Y20050
X4000Y20050
X3000Y20050
X2000Y20050
X1000Y20050
X6000Y20050
X7000Y20050
X8000Y20050
X9600Y20050
X10600Y20050
X11600Y20050
X12600Y20050
X13600Y20050
X14600Y20050
X15600Y20050
X16600Y20050
X18300Y19650
X18300Y18650
X18300Y17650
X18300Y16650
X18300Y15650
X18300Y14650
T06
X10500Y17050
M30
